<svg xmlns="http://www.w3.org/2000/svg" viewBox="0 0 1920 1080"><defs><style>.cls-1{isolation:isolate;}.cls-2{fill:#363636;}.cls-3{mix-blend-mode:soft-light;}.cls-4{fill:none;stroke:#939393;stroke-miterlimit:10;stroke-width:2px;}</style></defs><g class="cls-1"><g id="Layer_1" data-name="Layer 1"><rect class="cls-2" width="1920" height="1080"/><g class="cls-3"><path class="cls-4" d="M446.53-223.18,267.62,259.88c-20.55,55.5,30.73,110.79,87.61,94.46L452,326.56a72.2,72.2,0,0,0,47.92-44.68L641.45-106.8a72.21,72.21,0,0,0-14-72.75l-59.4-66.61C531.87-286.78,465.43-274.22,446.53-223.18Z"/><path class="cls-4" d="M602.37,252.06,423.46,735.12c-20.55,55.5,30.73,110.79,87.61,94.46l96.76-27.78a72.2,72.2,0,0,0,47.92-44.68L797.29,368.44a72.19,72.19,0,0,0-14-72.75l-59.39-66.6C687.71,188.46,621.27,201,602.37,252.06Z"/><path class="cls-4" d="M-9.72,90.6-188.63,573.66c-20.55,55.5,30.73,110.79,87.62,94.46l96.76-27.77a72.21,72.21,0,0,0,47.91-44.69L185.2,207a72.17,72.17,0,0,0-13.95-72.75l-59.4-66.6C75.63,27,9.18,39.56-9.72,90.6Z"/><path class="cls-4" d="M189.73,469.66,10.83,952.72c-20.56,55.49,30.73,110.78,87.61,94.46l96.76-27.78a72.16,72.16,0,0,0,47.91-44.69L384.66,586a72.2,72.2,0,0,0-14-72.75l-59.4-66.6C275.08,406.06,208.64,418.61,189.73,469.66Z"/><path class="cls-4" d="M1100.39-127,921.49,356.07c-20.56,55.49,30.73,110.79,87.61,94.46l96.76-27.78a72.17,72.17,0,0,0,47.91-44.68L1295.32-10.62a72.17,72.17,0,0,0-14-72.74L1222-150C1185.74-190.59,1119.3-178,1100.39-127Z"/><path class="cls-4" d="M1256.23,348.25l-178.9,483.06c-20.56,55.5,30.73,110.79,87.61,94.46L1261.7,898a72.17,72.17,0,0,0,47.91-44.68l141.54-388.68a72.17,72.17,0,0,0-14-72.75l-59.4-66.61C1341.58,284.65,1275.14,297.21,1256.23,348.25Z"/><path class="cls-4" d="M843.6,565.84,664.69,1048.91c-20.55,55.49,30.73,110.78,87.61,94.45l96.77-27.77A72.21,72.21,0,0,0,897,1070.9l141.54-388.68a72.21,72.21,0,0,0-14-72.75l-59.4-66.6C928.94,502.25,862.5,514.8,843.6,565.84Z"/><path class="cls-4" d="M1724.16,1.83,1545.25,484.89c-20.55,55.5,30.73,110.79,87.61,94.46l96.77-27.78a72.17,72.17,0,0,0,47.91-44.68l141.54-388.68a72.21,72.21,0,0,0-13.95-72.75l-59.4-66.6C1809.5-61.77,1743.06-49.21,1724.16,1.83Z"/><path class="cls-4" d="M1880,477.07,1701.09,960.13c-20.55,55.5,30.73,110.79,87.61,94.46l96.76-27.78a72.2,72.2,0,0,0,47.92-44.68l141.54-388.68a72.19,72.19,0,0,0-14-72.75l-59.39-66.6C1965.34,413.47,1898.9,426,1880,477.07Z"/><path class="cls-4" d="M1467.36,694.67l-178.9,483.06c-20.56,55.49,30.73,110.78,87.61,94.46l96.76-27.78a72.17,72.17,0,0,0,47.91-44.68L1662.29,811a72.17,72.17,0,0,0-14-72.74l-59.4-66.61C1552.71,631.07,1486.27,643.63,1467.36,694.67Z"/></g></g></g></svg>